HIERARCHY
ROOT Hips
{
	OFFSET	0.00	0.00	0.00
	CHANNELS 6 Xposition Yposition Zposition Zrotation Xrotation Yrotation
	JOINT LeftUpLeg
	{
		OFFSET	 0.126116	-0.014019	-0.065224
		CHANNELS 3 Zrotation Xrotation Yrotation
		JOINT LeftLeg
		{
			OFFSET	 0.000000	 0.000000	 0.569914
			CHANNELS 3 Zrotation Xrotation Yrotation
			JOINT LeftFoot
			{
				OFFSET	 0.000000	 0.000000	 0.544423
				CHANNELS 3 Zrotation Xrotation Yrotation
				JOINT LeftToeBase
				{
					OFFSET	 0.000000	 0.000000	 0.207117
					CHANNELS 3 Zrotation Xrotation Yrotation
					End Site
					{
						OFFSET	 0.000000	 0.000000	 0.207117
					}
				}
			}
		}
	}
	JOINT RightUpLeg
	{
		OFFSET	-0.124023	-0.008373	-0.065224
		CHANNELS 3 Zrotation Xrotation Yrotation
		JOINT RightLeg
		{
			OFFSET	 0.000000	 0.000000	 0.570047
			CHANNELS 3 Zrotation Xrotation Yrotation
			JOINT RightFoot
			{
				OFFSET	 0.000000	 0.000000	 0.544354
				CHANNELS 3 Zrotation Xrotation Yrotation
				JOINT RightToeBase
				{
					OFFSET	 0.000000	 0.000000	 0.207540
					CHANNELS 3 Zrotation Xrotation Yrotation
					End Site
					{
						OFFSET	 0.000000	 0.000000	 0.207540
					}
				}
			}
		}
	}
	JOINT Spine
	{
		OFFSET	 0.000184	-0.007763	 0.117403
		CHANNELS 3 Zrotation Xrotation Yrotation
		JOINT Spine1
		{
			OFFSET	 0.000000	 0.000000	 0.137269
			CHANNELS 3 Zrotation Xrotation Yrotation
			JOINT Spine2
			{
				OFFSET	 0.000000	 0.000000	 0.156879
				CHANNELS 3 Zrotation Xrotation Yrotation
				JOINT LeftShoulder
				{
					OFFSET	 0.080501	-0.002496	 0.160144
					CHANNELS 3 Zrotation Xrotation Yrotation
					JOINT LeftArm
					{
						OFFSET	 0.000000	 0.000000	 0.164363
						CHANNELS 3 Zrotation Xrotation Yrotation
						JOINT LeftForeArm
						{
							OFFSET	 0.000000	 0.000000	 0.364576
							CHANNELS 3 Zrotation Xrotation Yrotation
							JOINT LeftHand
							{
								OFFSET	 0.000000	 0.000000	 0.360812
								CHANNELS 3 Zrotation Xrotation Yrotation
								JOINT LeftHandIndex1
								{
									OFFSET	 0.000000	 0.000000	 0.086006
									CHANNELS 3 Zrotation Xrotation Yrotation
									JOINT LeftHandIndex2
									{
										OFFSET	 0.000000	 0.000000	 0.047236
										CHANNELS 3 Zrotation Xrotation Yrotation
										JOINT LeftHandIndex3
										{
											OFFSET	-0.004284	-0.000551	 0.038166
											CHANNELS 3 Zrotation Xrotation Yrotation
											End Site
											{
												OFFSET	-0.004284	-0.000551	 0.038166
											}
										}
									}
								}
							}
						}
					}
				}
				JOINT Neck
				{
					OFFSET	 0.000000	 0.000000	 0.176489
					CHANNELS 3 Zrotation Xrotation Yrotation
					JOINT Head
					{
						OFFSET	 0.000000	-0.001747	 0.077940
						CHANNELS 3 Zrotation Xrotation Yrotation
						End Site
						{
							OFFSET	 0.000000	-0.001747	 0.077940
						}
					}
				}
				JOINT RightShoulder
				{
					OFFSET	-0.080363	 0.000306	 0.159706
					CHANNELS 3 Zrotation Xrotation Yrotation
					JOINT RightArm
					{
						OFFSET	 0.000000	 0.000000	 0.164196
						CHANNELS 3 Zrotation Xrotation Yrotation
						JOINT RightForeArm
						{
							OFFSET	 0.000000	 0.000000	 0.365611
							CHANNELS 3 Zrotation Xrotation Yrotation
							JOINT RightHand
							{
								OFFSET	 0.000000	 0.000000	 0.360648
								CHANNELS 3 Zrotation Xrotation Yrotation
								JOINT RightHandIndex1
								{
									OFFSET	 0.000000	 0.000000	 0.069977
									CHANNELS 3 Zrotation Xrotation Yrotation
									JOINT RightHandIndex2
									{
										OFFSET	 0.000000	 0.000000	 0.052305
										CHANNELS 3 Zrotation Xrotation Yrotation
										JOINT RightHandIndex3
										{
											OFFSET	 0.009002	-0.000782	 0.042196
											CHANNELS 3 Zrotation Xrotation Yrotation
											End Site
											{
												OFFSET	 0.009002	-0.000782	 0.042196
											}
										}
									}
								}
							}
						}
					}
				}
			}
		}
	}
}
MOTION
Frames:    5
Frame Time: 0.03333334
-0.057807	-2.194983	 1.165324	 4.132015	-1.802061	-3.564324	 16.380160	-16.021060	-173.548700	 0.327616	-49.246640	-0.014382	 94.777900	 82.512690	-98.800960	-2.371308	 31.293050	-0.062645	-17.858660	-35.621170	-175.214600	 12.556830	-60.196320	 11.580930	 6.621649	 72.914600	-0.013035	 2.357879	 33.159750	 0.106938	 16.974150	 8.916809	 1.104144	 1.257345	 3.240742	 2.626506	-7.219796	-2.855953	-3.419650	-93.772160	 58.868440	 175.754100	 17.037440	 36.368050	-33.657100	-18.112730	 3.548085	-11.072110	 0.474162	-6.428580	-5.930570	-4.869458	 19.240290	-2.786450	-3.890622	 21.356240	 2.211995	-4.808246	 5.545705	 0.146956	-0.125094	-5.016415	 0.159067	-9.298120	 1.841937	 2.334365	 89.831140	 61.583210	-179.883300	-18.695730	 48.274330	 13.689870	 16.088040	 3.800642	 13.476550	-4.896742	 7.602351	 0.767111	 6.304244	 25.968990	-0.576393	 1.731653	 45.914490	-6.855508	 0.351847	 25.036080	 3.657615
-0.059810	-2.234389	 1.165674	 5.556499	-0.953787	-3.622550	 14.752280	-14.656780	-174.048400	 1.308134	-48.435310	 0.714879	 100.880400	 82.898200	-105.369000	-2.368821	 31.711440	-0.072111	-21.968850	-38.664130	-177.268900	 12.708610	-54.484100	 11.029270	 7.360239	 80.717270	-2.087232	 2.358980	 32.999240	 0.103204	 17.553260	 8.428462	 0.809348	 1.459768	 3.000609	 3.136570	-8.364407	-2.917829	-3.869007	-94.063290	 59.018130	 175.114800	 16.262740	 33.848340	-35.144430	-19.213040	 3.508991	-11.002070	 1.385877	-6.862620	-7.934311	-4.865646	 19.340770	-2.793623	-3.877178	 21.528470	 2.198330	-4.805683	 5.575881	 0.145191	-0.048095	-5.098294	 0.218217	-10.156610	 1.686988	 1.957155	 89.732570	 61.705900	 179.881700	-18.208020	 49.438690	 10.355120	 15.193610	 3.938482	 15.576710	-5.082014	 8.501632	 0.401719	 6.281696	 23.934190	-0.546257	 1.998219	 43.772960	-7.093326	 0.722269	 23.409730	 3.470146
-0.061558	-2.280040	 1.163273	 6.443675	 0.183424	-4.028353	 13.727340	-13.098020	-174.283100	 1.758898	-47.560900	 1.037850	 113.470500	 83.197470	-118.034400	-2.365682	 32.217090	-0.083633	-24.889150	-41.584720	-179.552900	 12.604660	-46.594980	 9.791602	 15.025930	 84.577870	-11.907560	 2.361238	 32.661670	 0.095390	 18.659310	 7.542259	 0.812484	 1.632364	 3.226019	 3.651354	-9.266313	-3.129299	-4.314464	-94.359180	 58.951130	 174.493900	 14.613380	 30.879960	-36.617340	-19.958770	 3.444856	-10.897420	 1.763124	-7.760638	-7.875630	-4.847197	 19.786040	-2.817860	-3.852170	 21.846570	 2.172923	-4.791484	 5.743075	 0.135384	-0.006201	-5.179328	 0.310968	-10.889310	 1.559429	 1.784466	 89.565450	 61.910770	 179.478500	-17.508050	 50.642660	 6.813650	 13.375180	 3.904432	 18.026150	-5.734893	 9.478969	-0.632960	 6.239485	 21.316690	-0.617601	 2.248811	 41.585630	-7.314090	 1.284400	 20.851750	 3.202560
-0.063738	-2.334174	 1.157628	 6.717389	 0.683807	-4.524568	 13.088680	-10.261180	-174.812800	 1.985581	-46.470780	 1.184014	 125.225300	 83.615090	-129.599600	-2.353811	 33.962990	-0.124177	-23.927390	-43.069650	 179.601500	 11.312000	-37.601600	 7.433592	 100.042700	 86.787520	-98.628510	 2.347954	 34.524990	 0.139133	 19.679700	 6.947087	 1.090245	 1.762814	 4.126934	 3.800764	-9.762320	-3.498899	-4.529746	-94.502980	 58.868190	 174.201300	 12.171410	 28.269220	-38.113740	-20.550170	 3.359539	-10.764180	 1.286620	-8.241236	-7.297421	-4.827685	 20.318540	-2.863625	-3.813705	 22.330790	 2.133852	-4.760438	 6.107237	 0.113866	 0.043462	-5.312354	 0.347798	-11.280850	 1.453363	 1.581193	 89.417040	 62.028190	 179.117400	-16.203200	 51.611460	 3.481225	 11.063300	 3.562021	 19.369560	-6.144163	 9.993108	-2.642957	 6.184614	 18.268210	-0.714951	 2.632101	 37.871420	-7.645541	 1.935922	 17.754900	 2.919664
-0.069282	-2.405311	 1.146979	 7.162319	 0.614560	-4.554162	 11.783000	-5.904951	-176.402700	 2.663590	-44.992160	 1.634249	 120.986300	 85.643560	-125.126500	-2.300097	 39.820370	-0.270824	-23.020730	-44.673760	 178.419800	 10.716160	-29.105610	 5.638787	 18.566510	 82.686940	-17.521170	 2.337852	 35.778760	 0.169434	 19.894560	 7.066670	 1.060823	 1.793744	 4.656038	 3.841775	-9.944741	-3.803046	-4.662676	-94.526760	 59.133130	 174.106900	 9.295895	 26.470380	-39.671630	-20.259100	 3.226149	-10.569660	 0.580705	-9.975889	-8.082002	-4.869460	 20.576190	-3.182477	-3.770679	 22.865200	 2.090168	-4.700618	 6.803660	 0.072127	 0.161752	-5.462068	 0.296374	-11.226050	 1.557043	 1.201229	 89.356580	 61.735770	 178.982300	-14.384780	 52.023310	-0.511704	 8.815923	 3.070580	 19.771710	-6.076653	 9.428504	-4.650896	 6.180277	 14.631750	-0.500952	 2.980931	 34.049500	-7.939307	 2.662285	 14.144940	 2.641402
